<?xml version="1.0" standalone="no"?>
<!DOCTYPE svg PUBLIC "-//W3C//DTD SVG 20010904//EN"
 "http://www.w3.org/TR/2001/REC-SVG-20010904/DTD/svg10.dtd">
<svg version="1.0" xmlns="http://www.w3.org/2000/svg"
 width="1000.000000pt" height="1000.000000pt" viewBox="0 0 1000.000000 1000.000000"
 preserveAspectRatio="xMidYMid meet">
<g transform="translate(0.000000,1000.000000) scale(0.100000,-0.100000)"
fill="#000000" stroke="none">
<path d="M4735 9904 c-727 -48 -1341 -211 -1963 -523 -709 -355 -1360 -921
-1815 -1578 -496 -716 -796 -1559 -857 -2408 -13 -179 -13 -580 0 -755 29
-405 123 -851 258 -1235 311 -881 848 -1631 1589 -2222 414 -330 918 -607
1428 -784 525 -182 1045 -269 1615 -269 775 0 1499 170 2191 514 802 400 1503
1038 1971 1796 605 979 844 2099 692 3235 -123 921 -514 1797 -1119 2505 -828
970 -1979 1574 -3250 1705 -152 15 -612 27 -740 19z m547 -114 c413 -28 769
-94 1138 -210 178 -56 236 -76 340 -120 41 -17 100 -40 130 -52 101 -39 453
-223 605 -317 721 -445 1304 -1060 1704 -1795 131 -241 202 -398 289 -636 209
-575 302 -1128 289 -1734 -11 -526 -91 -976 -261 -1471 -195 -571 -515 -1117
-925 -1585 -92 -104 -351 -364 -446 -447 -655 -569 -1435 -947 -2285 -1108
-472 -89 -1053 -100 -1555 -29 -633 89 -1244 308 -1805 647 -608 368 -1145
888 -1535 1487 -503 773 -768 1665 -769 2590 -1 466 53 860 180 1310 37 134
106 341 133 405 5 11 17 40 26 65 178 451 465 926 795 1316 112 133 359 383
500 507 947 830 2207 1260 3452 1177z"/>
<path d="M4790 8743 c-273 -46 -505 -222 -625 -474 -55 -116 -75 -212 -75
-354 0 -89 5 -143 20 -201 72 -282 279 -502 560 -596 89 -30 104 -32 245 -32
179 -1 233 11 380 83 209 104 350 265 425 488 28 84 33 116 37 223 6 146 -8
226 -60 353 -104 256 -332 444 -609 502 -64 14 -237 18 -298 8z m304 -119
c356 -86 603 -438 556 -791 -41 -310 -253 -549 -552 -625 -109 -27 -299 -22
-398 12 -238 80 -404 253 -481 500 -34 107 -34 283 0 390 64 207 187 358 371
454 150 79 335 101 504 60z"/>
<path d="M3816 6923 c-3 -10 -35 -135 -71 -278 -36 -143 -86 -336 -110 -430
-81 -313 -185 -719 -185 -722 0 -8 84 -23 91 -16 8 8 42 137 269 1027 44 176
83 323 86 328 3 4 135 8 294 8 l288 0 7 -32 c4 -18 24 -69 45 -113 86 -179
237 -274 420 -262 104 6 178 37 249 103 71 65 113 129 151 227 l29 72 288 3
289 2 37 -147 c21 -82 43 -165 48 -187 l10 -38 42 6 c23 4 45 10 48 14 6 6
-22 118 -100 410 l-12 42 -368 0 -369 0 -16 -71 c-34 -150 -114 -266 -219
-314 -68 -32 -172 -34 -250 -5 -114 43 -205 179 -242 363 l-5 27 -370 0 c-342
0 -369 -1 -374 -17z"/>
<path d="M6072 6133 c-17 -43 -84 -217 -150 -388 -66 -170 -152 -392 -191
-492 -39 -100 -71 -188 -71 -196 0 -17 77 -44 89 -31 4 5 40 92 79 194 39 102
128 331 197 510 70 179 138 353 151 388 l24 63 -35 15 c-56 23 -61 19 -93 -63z"/>
<path d="M5313 6023 c-55 -60 -166 -182 -247 -272 l-148 -164 251 -251 251
-251 37 38 38 37 -213 213 c-116 117 -212 216 -212 220 0 5 82 99 183 209 100
111 195 216 211 235 l29 34 -34 29 c-19 16 -37 29 -40 30 -4 0 -51 -48 -106
-107z"/>
<path d="M6395 6100 l-29 -30 213 -215 c117 -117 211 -218 210 -223 -2 -6 -92
-106 -199 -222 -107 -117 -201 -223 -209 -235 -14 -22 -12 -25 19 -52 19 -15
37 -28 41 -28 9 0 483 525 487 540 3 13 -471 488 -491 493 -7 1 -26 -11 -42
-28z"/>
<path d="M4492 4408 c-107 -323 -564 -1683 -567 -1686 -2 -2 -37 -6 -79 -9
-62 -5 -77 -9 -81 -24 -4 -11 -3 -23 0 -29 4 -6 84 -10 211 -10 l205 0 -3 28
c-3 26 -5 27 -82 34 -43 4 -82 9 -86 10 -5 2 26 108 68 236 l76 232 297 0 297
0 26 -72 c53 -151 127 -390 123 -395 -3 -3 -42 -7 -86 -10 l-81 -6 0 -28 0
-29 356 0 355 0 -3 28 c-3 26 -5 27 -87 34 -46 4 -86 9 -88 12 -3 3 -150 423
-327 933 l-321 928 -31 3 -32 3 -60 -183z m99 -728 c70 -212 124 -388 120
-392 -3 -3 -123 -8 -266 -10 -255 -3 -260 -3 -256 17 4 24 251 776 259 790 3
5 8 2 11 -5 3 -8 62 -188 132 -400z"/>
<path d="M6685 4498 c-15 -55 -72 -254 -327 -1135 -34 -117 -64 -213 -68 -213
-3 0 -27 82 -53 183 -26 100 -72 274 -102 387 -184 680 -197 733 -183 741 7 5
42 9 78 9 76 0 93 8 88 41 l-3 24 -365 0 -365 0 -3 -24 c-5 -33 12 -41 99 -41
45 0 81 -5 91 -12 8 -7 37 -83 63 -168 73 -240 117 -382 209 -675 46 -148 107
-346 136 -440 29 -93 79 -254 111 -358 32 -103 59 -190 59 -193 0 -3 14 -4 31
-2 30 3 32 6 64 113 49 162 158 534 271 918 54 185 101 337 104 337 3 0 32
-75 64 -167 53 -151 109 -312 351 -993 72 -204 73 -205 104 -208 17 -2 31 -2
31 0 0 4 65 226 325 1118 115 393 214 718 219 722 6 4 38 8 71 8 71 0 88 9 83
41 l-3 24 -205 0 -205 0 0 -30 0 -30 78 -3 c55 -2 80 -7 83 -17 3 -7 -6 -51
-20 -97 -13 -46 -95 -326 -180 -623 -85 -298 -159 -552 -165 -565 l-9 -25 -9
25 c-6 14 -113 332 -239 707 l-229 683 -31 0 c-30 0 -32 -3 -49 -62z"/>
<path d="M2374 4529 c-8 -13 -46 -540 -42 -584 2 -25 8 -30 28 -30 23 0 26 6
45 95 12 52 27 113 34 135 27 81 84 176 133 220 71 63 138 86 288 96 127 8
430 12 430 5 0 -2 -59 -111 -131 -242 -73 -132 -169 -306 -214 -389 -45 -82
-169 -307 -275 -500 -106 -192 -220 -399 -253 -460 -33 -60 -66 -119 -73 -130
-8 -11 -14 -36 -14 -57 l0 -38 645 0 645 0 0 33 c1 17 9 172 19 342 11 171 17
313 14 318 -2 4 -15 7 -28 7 -20 0 -25 -6 -30 -37 -55 -343 -137 -513 -278
-579 -51 -23 -57 -24 -339 -24 -190 0 -288 3 -288 10 0 6 71 146 159 313 746
1423 752 1435 749 1469 l-3 33 -607 3 c-442 1 -609 -1 -614 -9z"/>
</g>
</svg>
